<svg width="140" height="38" viewBox="0 0 140 38" fill="none" xmlns="http://www.w3.org/2000/svg">
<g filter="url(#filter0_d_120_595)">
<path d="M10 0H88.3403L73.8045 18H10V0Z" fill="url(#paint0_linear_120_595)"/>
<path d="M90.7121 0H101.04L86.5044 18H76.1763L90.7121 0Z" fill="url(#paint1_linear_120_595)"/>
<path d="M104.636 0H111.904L97.3677 18H90.0998L104.636 0Z" fill="url(#paint2_linear_120_595)"/>
<path d="M116.8 0H121.007L106.472 18H102.264L116.8 0Z" fill="url(#paint3_linear_120_595)"/>
<path d="M128.352 0H129.5L114.964 18H113.817L128.352 0Z" fill="url(#paint4_linear_120_595)"/>
</g>
<defs>
<filter id="filter0_d_120_595" x="0" y="0" width="139.5" height="38" filterUnits="userSpaceOnUse" color-interpolation-filters="sRGB">
<feFlood flood-opacity="0" result="BackgroundImageFix"/>
<feColorMatrix in="SourceAlpha" type="matrix" values="0 0 0 0 0 0 0 0 0 0 0 0 0 0 0 0 0 0 127 0" result="hardAlpha"/>
<feOffset dy="10"/>
<feGaussianBlur stdDeviation="5"/>
<feComposite in2="hardAlpha" operator="out"/>
<feColorMatrix type="matrix" values="0 0 0 0 0.645833 0 0 0 0 0.489412 0 0 0 0 0.0871876 0 0 0 0.1 0"/>
<feBlend mode="normal" in2="BackgroundImageFix" result="effect1_dropShadow_120_595"/>
<feBlend mode="normal" in="SourceGraphic" in2="effect1_dropShadow_120_595" result="shape"/>
</filter>
<linearGradient id="paint0_linear_120_595" x1="129.5" y1="8.99997" x2="19.5248" y2="8.99998" gradientUnits="userSpaceOnUse">
<stop stop-color="#FF9900"/>
<stop offset="1" stop-color="#FFD60A"/>
</linearGradient>
<linearGradient id="paint1_linear_120_595" x1="129.5" y1="8.99997" x2="19.5248" y2="8.99998" gradientUnits="userSpaceOnUse">
<stop stop-color="#FF9900"/>
<stop offset="1" stop-color="#FFD60A"/>
</linearGradient>
<linearGradient id="paint2_linear_120_595" x1="129.5" y1="8.99997" x2="19.5248" y2="8.99998" gradientUnits="userSpaceOnUse">
<stop stop-color="#FF9900"/>
<stop offset="1" stop-color="#FFD60A"/>
</linearGradient>
<linearGradient id="paint3_linear_120_595" x1="129.5" y1="8.99997" x2="19.5248" y2="8.99998" gradientUnits="userSpaceOnUse">
<stop stop-color="#FF9900"/>
<stop offset="1" stop-color="#FFD60A"/>
</linearGradient>
<linearGradient id="paint4_linear_120_595" x1="129.5" y1="8.99997" x2="19.5248" y2="8.99998" gradientUnits="userSpaceOnUse">
<stop stop-color="#FF9900"/>
<stop offset="1" stop-color="#FFD60A"/>
</linearGradient>
</defs>
</svg>
